<svg width="52" height="52" viewBox="0 0 52 52" fill="none" xmlns="http://www.w3.org/2000/svg">
<circle cx="26" cy="26" r="26" fill="url(#paint0_linear)"/>
<path d="M23.6934 9.09271C17.5075 10.0294 12.4656 14.0203 10.2266 19.7543C8.5187 24.1281 8.74751 29.129 10.8394 33.3643L11.3297 34.3498L10.1449 38.6584C9.4993 41.0286 8.97631 42.9833 9.00083 42.9996C9.01717 43.0159 11.0192 42.5109 13.4544 41.8756L17.8834 40.7191L18.7822 41.1426C23.4564 43.3254 28.8333 43.301 33.4339 41.0693C35.5831 40.0268 37.5197 38.5037 39.0968 36.6222C41.8588 33.3317 43.2807 28.9091 42.9538 24.6493C42.4881 18.5814 38.9252 13.3036 33.5156 10.6728C31.9794 9.92348 30.6964 9.5081 28.8987 9.16602C27.9263 8.98683 24.7148 8.93796 23.6934 9.09271ZM28.5064 11.976C29.8302 12.204 31.105 12.6357 32.4125 13.2954C33.8752 14.0366 34.864 14.7534 36.008 15.8936C38.6311 18.5081 40.0039 21.6683 40.151 25.3824C40.2654 28.4692 39.391 31.3932 37.5606 33.9996C36.7761 35.1236 35.1173 36.7362 33.9651 37.4937C31.5545 39.0982 29.2827 39.8231 26.4472 39.8964C23.5545 39.9779 21.4217 39.4322 18.6351 37.8765L18.3001 37.6892L15.7179 38.3652C14.3042 38.7399 13.103 39.0331 13.0621 39.0168C13.0213 39.0005 13.2991 37.8684 13.675 36.5C14.0427 35.1317 14.3532 33.967 14.3532 33.9018C14.3532 33.8367 14.2143 33.5679 14.0345 33.291C11.8119 29.7806 11.297 25.2276 12.678 21.2692C14.0672 17.3108 17.0989 14.1914 21.0539 12.6683C22.1735 12.2366 23.3093 11.9841 24.9763 11.7886C25.5892 11.7153 27.5994 11.8212 28.5064 11.976Z" fill="white"/>
<path d="M19.2766 18.1087C18.6801 18.2716 17.773 19.3549 17.3481 20.4137C17.1765 20.8454 17.1602 21.0327 17.1602 22.0427C17.1602 23.1585 17.1683 23.1992 17.4543 23.9893C18.296 26.2373 20.8455 29.3649 23.3706 31.2545C24.7189 32.2644 25.9119 32.859 27.9548 33.5432C29.7444 34.1377 30.9211 34.1214 32.2286 33.478C33.1683 33.0137 33.8466 32.3377 34.059 31.6536C34.2633 31.0101 34.3287 30.0327 34.1816 29.8536C33.9528 29.5766 30.4717 27.9477 30.1121 27.9477C29.8343 27.9477 29.8507 27.9314 29.0335 28.9576C28.2735 29.9024 28.0284 30.1468 27.8078 30.1468C27.4809 30.1468 26.0509 29.4463 25.1928 28.8843C24.7597 28.5911 24.0978 28.0698 23.7301 27.7278C22.6515 26.7178 21.4421 25.0644 21.4421 24.6001C21.4421 24.4617 21.6055 24.2092 21.9405 23.8264C22.4635 23.2318 22.8312 22.6128 22.8312 22.3277C22.8312 22.1648 21.6709 19.2734 21.3604 18.6626C21.2786 18.5078 21.1479 18.3205 21.0662 18.2472C20.8701 18.0761 19.726 17.9865 19.2766 18.1087Z" fill="white"/>
<defs>
<linearGradient id="paint0_linear" x1="0" y1="0" x2="58.1623" y2="8.17908" gradientUnits="userSpaceOnUse">
<stop stop-color="#20802C"/>
<stop offset="1" stop-color="#30BF42"/>
</linearGradient>
</defs>
</svg>
